<svg xmlns="http://www.w3.org/2000/svg" viewBox="0 0 491.14 95.05" height="48" width="252">
    <defs>
        <style>
            .cls-1,.cls-2,.cls-3,.cls-4,.cls-5,.cls-6,.cls-7,.cls-8,.cls-9,.cls-10,.cls-11{fill-rule:evenodd;}
            <!-- W的颜色 -->
            .cls-1{fill:#b7392b;}
            <!-- H的颜色 -->
            .cls-2{fill:#c9541a;}  
            <!-- I的颜色 -->
            .cls-3{fill:#898989;}
            <!-- S的颜色 -->
            .cls-4{fill:#2fa55d;}                                  
            <!-- P的颜色 -->
            .cls-5{fill:#2a7aae;}
            <!-- E的颜色 -->
            .cls-6{fill:#1d9980;}
            <!-- R的颜色 -->
            .cls-7{fill:#824597;}
            <!-- 花瓣1的颜色 -->
            .cls-8{fill:#f3a700;}            
            <!-- 花瓣2的颜色 -->
            .cls-9{fill:#fed400;}
            <!-- 花瓣3的颜色 -->
            .cls-10{fill:#ffe46d;}
            <!-- 花瓣4的颜色 -->
            .cls-11{fill:#fff3b8;}
        </style>
    </defs>
    <g>
        <path class="cls-1" d="M142.59,49c3.56,6.66,4.79,14.6,8.64,21.09,2.23,3.78,12.94,10.12,17.63-3.16,2.68-7.58,5-15.36,7.22-22.77,2.91-9.61-3.81-15.47-9.49-17.34-4.61,5.68-5.73,22.75-10.24,27-2.58-9.41-3-24.72-14.76-23.14-5.55,5.44-7.5,14.65-13,19.69-4.08-5.9-2.1-19-6.92-25.65l-17.13-.38c-.53,4,7.35,53.28,8.64,54.83,2.69,3.27,12.47,3,18.6-9.39C134.17,65,139.25,51.58,142.59,49Z"/>
        <path class="cls-2" d="M213.27,77.47c-.05-10.14-5.65-14.94.2-23.74l7.78.05c.67,6.29-2.72,17.54.16,22.08,3.39,5.34,13.46,1.42,17-2.17.68-4-1.55-22.24-3.21-25.58-5-10-17.29-.86-23.08-5.94-3.53-3.87-.73-18.25-1.7-24.4-4.79-2.61-15.42-4.09-22.31-1.59-1.61,8.42-.08,39.5-.17,50.51-.06,8.43-3.2,19.64,6.2,18C198.42,83.91,210,79.12,213.27,77.47Z"/>
        <path class="cls-3" d="M252.64,25.48a20.1,20.1,0,0,0,17-4.59c.74-8.94-.07-12.67-9-12.67-10.19,0-11.46-.76-11,7.44C249.86,20.94,250.26,22.62,252.64,25.48Z"/>
        <path class="cls-3" d="M252.7,82.34c8.12,2.31,12.85-3.8,16.23-7.3,5.12-5.32,8.24-6,6.21-16.1-.95-4.69-2-17.37-4.27-20.45-2.67-3.68-16.5-4.45-21.41-3.88Z"/>   
        <path class="cls-4" d="M433.11,77.3c1.23-11.17-3.84-8.13-11.6-7.46-6.22.54-11.88-5.17-13.2-9.15,6.06-6,39.68-2.43,25.32-18-18.82-20.47-40-9.49-42.17,10C386.88,93.09,426,81.71,433.11,77.3ZM413.52,50.75c-15.21,7.88-12.72-10.16-1.86-9C413.6,44.51,414.21,45.88,413.52,50.75Z"/>     
        <path class="cls-5" d="M333.93,88.5c4.5,3.63,13.25,8.41,22.32,5.8l.15-21.77c7.22,1.39,12.46,7.32,19.25.21,6.21-6.5,7.71-29.94-3.31-36.79-6.1-3.79-13.21-4.86-19.75-1.3-3.86-1.25-1.56-2.46-7-2.26C330.72,32.92,334,43.16,334,49.69c0,11.53-1.05,28-.08,38.81Zm21.83-43.74c8.94-7.3,15.18,8.09,7.54,13.63C351.87,66.68,350.14,49.35,355.76,44.76Z"/>
        <path class="cls-6" d="M306.73,72.8c-5.92,2.17-7.35.12-13.28.79a15.9,15.9,0,0,0-2.51,7.59c7.41.56,13.81,2.52,20.86-1.31,3.8-2.07,10.88-7.45,11.87-11.34,4.19-16.57-19.74-11.06-17.13-29,4.83-3,6.4-1.53,10.25-3.81,0-10.23-9.4-6-16.05-3.8-5.65,1.85-13.29,4.08-13.58,11.81C286.54,60.63,314.34,52.06,306.73,72.8Z"/>
        <path class="cls-7" d="M447.56,33.57,451.43,80c8.72,3.43,17.16,2.33,25.39-1,.77-8.21-5.09-26.09-1.36-31.43,4.42-2.93,8.08,1.51,14.71.68,4.95-16.93-10.39-8.36-18.84-11.5-3-1.12-4.08-4.22-9.73-5.19A24.51,24.51,0,0,0,447.56,33.57Z"/>
    </g>
    <g>
    <!-- 花瓣1 -->
        <path class="cls-8" d="M22.45,1.27c-8.65,3.46-6,9.81-9.67,12.57C11,15.22,2.3,16.06.54,23.82c-3,13.19,10.9,20.09,23,21,20.75,1.58,23.14-2.12,20.89-23C43.24,10.63,35-3.74,22.45,1.27Z"/>
        <path class="cls-8" d="M54.5,48.21c-4.37.83-5.35.61-6.37,4.86C40.26,85.82,68.85,105,77,83c1.94-5.21.14-3.72,5.1-5.56C103.24,69.57,89,41.67,54.5,48.21Z"/>
        <path class="cls-8" d="M48.38,37.51c.83,4.38.61,5.36,4.86,6.38C86,51.76,105.13,23.17,83.15,15c-5.21-1.94-3.72-.14-5.57-5.1C69.74-11.22,41.83,3.07,48.38,37.51Z"/>
        <path class="cls-8" d="M20.29,48.08C3.64,50.54-3.64,62.49,1.76,71.54c4.25,7.13,10.38,4.2,12.55,9.29C16.59,86.17,18,91.43,25.6,92c21.41,1.64,23.13-39.95,15-43.28C36.2,46.91,25.13,47.36,20.29,48.08Z"/>
        <!-- 花瓣2 -->
        <path class="cls-9" d="M61.93,5.87c-9,3-11.9,13.22-11.41,24.86.31,7.29.13,9.8,7.35,10.69a48.63,48.63,0,0,0,16.64-.94C83.29,38,92.6,27.05,83.66,19.61c-2-1.66-4.19-1.86-6.06-3C72.82,13.79,73.85,2,61.93,5.87Z"/>
        <path class="cls-9" d="M22.62,6.45c-7.34,4.27-3.94,7.57-8.13,10.17-3.81,2.36-8.4,2.48-9.31,9.1C3.72,36.31,15.4,41.13,25.55,41.65,41.8,42.48,43.2,38.41,41.1,22,40,13.16,32.19.9,22.62,6.45Z"/>
        <path class="cls-9" d="M56.69,51.29c-11.13,2.07-5.16,24-3.28,27.63,4.77,9.22,16.33,12.63,21.27.89,2.26-5.34-.73-2.44,4.34-4.63C98,67,81.57,46.66,56.69,51.29Z"/>
        <path class="cls-9" d="M18.34,52.05C2,57,3.35,67.94,8.55,72.78c3.15,2.92,3.24,1.48,5.88,3,3.54,2.09,1.16,1.22,3.5,5.54,6,11.06,24.45,7.4,23.54-19.63-.24-7-.16-9.78-7.09-10.68A38.54,38.54,0,0,0,18.34,52.05Z"/>
        <!-- 花瓣3 -->
        <path class="cls-10" d="M57,55.89c-6.32,4.31-2.24,26.93,9.47,25,5.16-.82,4.59-4.33,6.59-6.77,2.54-3.08,5.82-2,7.3-5.89s-.06-7.31-2.77-9.63C74.05,55.59,62.57,52.12,57,55.89Z"/>
        <path class="cls-10" d="M55.75,36.52c11.85,3.62,27.6-1,24.88-11.6-1.14-4.5-4.52-3.63-7.11-6.17,0,0-6.64-14.62-15.57-3.69C53.88,20,53.61,29.67,55.75,36.52Z"/>
        <path class="cls-10" d="M35.12,36.41c1.48-1.23.7,1.46,2-3,.86-2.95.42-10.59-.67-13.78C34.52,14,31.27,11.2,24,11.41c-1.93,2.18-2,1.5-3.56,4.13-2.87,4.78.76,1.87-3.59,4.31C13,22,9.17,23.37,11.8,30.29,14.19,36.57,28.86,40.7,35.12,36.41Z"/>
        <path class="cls-10" d="M36.27,56C25,51.92,8.6,56.76,11.42,67.5c1.09,4.18,5,4.19,7.09,6.27,0,0,6.87,14.54,15.54,3.39C38,72.16,38.4,62.34,36.27,56Z"/>
        <!-- 花瓣4 -->
        <path class="cls-11" d="M24.3,74.83c6.15.45,8.34-1.66,9.1-7.3.94-7,.14-9.18-6.77-8.9-4.81.2-9.84,2-9.36,7C17.7,70.21,18,66,24.3,74.83Z"/>
        <path class="cls-11" d="M74.6,67.84c.48-5.71-1.2-8.2-7.09-9-7.13-1-9.38-.26-9.07,6.83.21,5,2,9.88,7.06,9.29,3.57-.42,2.67-1.48,4.61-3.74C71.61,69.46,73,69,74.6,67.84Z"/>
        <path class="cls-11" d="M74.73,25.69c-2.31-3.61-1.76-1.5-4.16-4s-.76-3.08-4.25-4.06c-5.13-1.44-7.37,3.51-7.81,8.09-.69,7.32.78,8.66,8.05,8C72.6,33.13,74.79,31.1,74.73,25.69Z"/>
        <path class="cls-11" d="M32.28,32.32c3.24-4.16,2-15.46-7.94-14.73-6.54,9.15-8.8,6-6.72,11.74C19.23,33.82,28.79,35.31,32.28,32.32Z"/>
    </g>
</svg>