<svg id="_" data-name=" " xmlns="http://www.w3.org/2000/svg" viewBox="0 0 436.73 120.32"><defs><style>.cls-1{fill:#fff;}.cls-2{fill:#dbdbdb;}</style></defs><title>红色潇湘-株洲站</title><path class="cls-1" d="M30,28.53h-.44a2.32,2.32,0,0,1-.23.57l-.18.18-.21.36c.23.47.55.47.78,1.15a1.38,1.38,0,0,0,.94.91c0,.91,0,.75.62,1.22,1.69,1.38.23,1.85,2.79,2.6a5.78,5.78,0,0,0,1.82.39c.36,0,.55.29,1,.39s.31,0,.7-.16a10.88,10.88,0,0,1,2.32-.49,29.39,29.39,0,0,1-1.67,6.64c-.7,2.6-1.12,3.9-1.72,6.51-.44,1.93.29,1.69-1.41,2.6s-3.93,1.87-5.39,2.84l-2.47,1.69a1.12,1.12,0,0,0,.34.55,18.64,18.64,0,0,1,1,1.59,8.33,8.33,0,0,0,.86.89c1.09,1.15,0,.6,2,1.51l3.67,1.63c1.56.73,1.43,0,3,.21a14.4,14.4,0,0,0,1.56,0c.39,0,.23.16.83,0h.83a26,26,0,0,0,6-1c1.77-.55,3.41-1.2,5.21-1.85A8.51,8.51,0,0,1,53.74,59a16.9,16.9,0,0,0,2.6-.91l2.6-1,1.35-.39c.36,0,.94-.42,1.25-.49L63,55.89c.62-.16.73-.36,1.35-.39A2,2,0,0,0,65.6,55c.23,0,.42.18.6,0s-.18-.47.16-.57a2.37,2.37,0,0,1,.86,0c.23,0,0-.26,0-.65s.55-.18.62-.65c.18-1.09-.73-.89,0-1.48l.23-.18c.34.18,0,0,.31.26,0-.7,0-1.09-.57-1.28a1.59,1.59,0,0,0-.31-1.25c-.31-.6.7,0,0-.91-.23-.36-.29-.81-.47-1.09a14.19,14.19,0,0,0-3.8-2.32,25,25,0,0,0-5.7-.19c-.91-.16-.18,0-1.25,0q-2.07.14-4.11.49a16.11,16.11,0,0,1-2.76.34A20.54,20.54,0,0,0,52,40.32a12.34,12.34,0,0,1,.68-2,1.67,1.67,0,0,0,.21-1.09,12.68,12.68,0,0,0,0-3.67c-1-2.45-2-2.6-1.93-3.31a18,18,0,0,1,1.69-.68l5.44-5.21c.34-.42.23-.36.36-.89s1.59-1.25.7-2.16c-.16-.16-1-.62-.36-1.43.18-.26.44-.21.68-.36,0-1.48-2.19-1.56-3.62-1.61a20.83,20.83,0,0,0-4.74.57,106.13,106.13,0,0,0-14,7,48.83,48.83,0,0,1-5.86,3.36C30.41,28.87,30.53,28.53,30,28.53Z" transform="translate(-0.09 0.08)"/><path class="cls-1" d="M16.82,35.9a17.08,17.08,0,0,1-2.6,4l-.78.86c-.36.39-.47,1-1,1.59s-.31.21-.47.36a23.58,23.58,0,0,1-2.42,2.6L7.81,47a32.93,32.93,0,0,1-2.6,2.6,2.86,2.86,0,0,0-.91.81c-2.13,0-1.15.42-1.87.52-.29,0-.47-.18-.94.49.18.39.31-.16.44,1.15a1.87,1.87,0,0,0,.44,1.2.42.42,0,0,0-.29.29c0,.39,0,.31.21.55s.42,3.75,1.43,4.32l.94.55c.89.57,1.07.68,2.08.18a6.51,6.51,0,0,0,1.69-1.2c.78-.73,3.9-3.15,4.79-3.85a54.22,54.22,0,0,0,5.21-4.74l.73-.75A19.45,19.45,0,0,0,22,46.18a20.54,20.54,0,0,0,1.25-1.64l1.46-1.48v-.75c-.89-.42-.44-.62-.42-1.56l-1.82-.29a54.12,54.12,0,0,1,4.14-4.69c.44-.6.23-.47.89-.94a2,2,0,0,0,.68-2.6c-.29-.7-.29.18-.62-1.12s-.42-.78-.68-1.12-.16-.42-1.09-.65a40,40,0,0,0-4.74-.52l-.75-.16-.62-.29c-.49,0-1,.26-1.59.29a3.07,3.07,0,0,1,.83-1,8.75,8.75,0,0,0,1-.94,9.11,9.11,0,0,1,.86-.94c1.64-1.54.62-.73,1.67-2a9.89,9.89,0,0,1,1-.94c.52-.52,1.25-1.38,1.82-2s.68-.52,1-.83A3.77,3.77,0,0,0,27,18.89c.44-.94,1-1.3,1.46-2.34a8.8,8.8,0,0,0,.94-2.86,5.21,5.21,0,0,0,.26-2.6,4.27,4.27,0,0,0,0-2c0-.42-.34-.57-.44-1-.44-1.48,0-.52-.94-1.85a7.16,7.16,0,0,0-2.84-2.6,1.85,1.85,0,0,1-1.09-.23L23.3,3.28l-2.13-.55A25.07,25.07,0,0,0,16.9,1.4c-.31.65,0,.31,0,.91a7.11,7.11,0,0,1,0,3.33,25.54,25.54,0,0,1-1.15,4c-.47,1.3-1,2.37-1.51,3.59a44.54,44.54,0,0,1-3.77,6.53C9.64,21,5,27.88,4,28.84S-.23,32.93.11,35.09a20.59,20.59,0,0,1,.21,2.34,3.77,3.77,0,0,0,.34,2.13c.29.91.55.81.78,1.12s.6,1.8,1.43,1.82a13,13,0,0,0,4.53-.75c.81-.29,5.75-3.38,6.48-3.88S15.67,36,16.82,35.9Z" transform="translate(-0.09 0.08)"/><path class="cls-1" d="M2.29,65.73c0,.52.29.7.91,1.38a10,10,0,0,0,1.28,1.2,5.21,5.21,0,0,0,.7.47c.39.21.39.36.68.55A9.53,9.53,0,0,0,7.68,70,8.41,8.41,0,0,0,11,70.3a2.94,2.94,0,0,0,1.07,0A17,17,0,0,1,14.12,70c1.22,0,1-.16,1.9-.55a8,8,0,0,0,3-1.8c2.08-1.82,3.38-2.32,4.5-5.21a3.67,3.67,0,0,0,.29-1c0-.6-.21-.49-.18-1.07s.26-.49.26-.89v-.91c.75-.44,0,0,.83-1.38.42-.83.23.18.75-1.48s.7-.62.6-2.34c0-.47.13-.47.36-.78a4,4,0,0,0,.36-.7c.23-.49.26-.29.52-.62a3.88,3.88,0,0,0,.42-2.6c0-.23-.34-.44-.49-.68-.73-1,0-1.12-.29-1.59-.47,0-.29.47-1.12,1.51a42.93,42.93,0,0,1-7.3,6.23l-3.2,2.39-1.61,1.12L10.47,60c-.65.55-.89.6-1.09,1a1.3,1.3,0,0,1-.34.42A35.43,35.43,0,0,1,3.5,65.59C2.87,65.73,2.87,65.31,2.29,65.73Z" transform="translate(-0.09 0.08)"/><path class="cls-1" d="M81.17,42.46c.23-.21.39,0,.73-.23a69.53,69.53,0,0,0,6.87-3.18,22.77,22.77,0,0,1,2.37-1.28c.57.55.31,3.67.16,4.53a6.53,6.53,0,0,1-.91,2.81c-.34.52,0,.57,0,1,0,.94-5.7,3.7-6.12,3.75s-.44-.75-.49-1.28l-.21-3.23c0-.57,0-1.3-.29-1.41h0v.49c-.26.55-.62,0-.62-1a6.64,6.64,0,0,0-.16-1.2h-.26c-.78,3-1.41,5.21-2.26,8a24.5,24.5,0,0,0-1,4.06,14,14,0,0,0-.6,4.71c.39,1.38.91,2.6,1.25,3.85.52,2,3.57,4.24,5.21,5.08a10,10,0,0,0,3.07.83,18.9,18.9,0,0,0,3.64.18c.81,0,1.43-.26,2.26-.29a1.93,1.93,0,0,0,1-.21,51.78,51.78,0,0,0,5.21-1.2,24.39,24.39,0,0,1,3-.75l2.81-1c2.39-.81,5.44-1.59,7.81-2.6.7-.31,2.11-.55,3-.81a5,5,0,0,1,1.17-.18,8.25,8.25,0,0,0,2.6-.94c.55,0,.49,0,.78-.47.55,0,.44.16,1,0s1.15,0,1.2-.31v-.6l.89-.13c.34-.62.26-.65,1.25-.78,0-.36-.26-.49-.36-.78a3,3,0,0,1,0-1c0-.23-.23,0-.34-.31s.78-.49,1.07-.7-.18-.68,0-1,.26-.26,0-.7c-.73-1.17.31-2.6-1.85-2.6a6.07,6.07,0,0,1-1.9-.31c-.86-.16-.7-.47-1.41-.78a4.06,4.06,0,0,1-1.07-1.2,10,10,0,0,1-.86-1.33,11,11,0,0,0-.62-1.64h-.66c-.42,0-1.38-.55-2,.31s-.18,1.43-.49,2.06l-.29.6c-.55,1.22-.78,1.59-1.93,1.43a3.1,3.1,0,0,0-1.28.34l-1.33.42c-.81.29-1.87.55-2.6.78a7.31,7.31,0,0,0-2.6.83L91.53,58.26a39,39,0,0,1-4.06,1.09,11.71,11.71,0,0,1-1.43.23c-.75,0-.94,0-1.2-.55a10.65,10.65,0,0,1-.6-4.56,4.53,4.53,0,0,1,0-.73.78.78,0,0,1,.23-.7c.23-.18.18.21.47.44a3.59,3.59,0,0,1,.55.42,1.82,1.82,0,0,0,1.17.75,24.83,24.83,0,0,0,6.09-1.48,32.75,32.75,0,0,0,6.69-4.63,1,1,0,0,0,.39-.47c.18-.34.21-.23.47-.49l.52-.44c.65-.49.39,0,1-.89a2,2,0,0,1,.49-.44c.55-.36.65,0,1,.44a2.11,2.11,0,0,0,1.17-.78c.75,0,0,.21,1.12-.21l1.12-.36a1.8,1.8,0,0,1,1.17-.23,6.79,6.79,0,0,0,1.93-.91,14.86,14.86,0,0,0,2.45-2,20.25,20.25,0,0,0,2.6-3.36c.31-.62.89-1,1.25-1.67s.29-.62.49-1,0,0,.42-.34,0-.26.47-.34,0,.31.16.44a3.88,3.88,0,0,0,.18-.75c0-.21-.23-.16,0-.7l.34-.68c.21-.42,0-.34.42-.6a5.21,5.21,0,0,0,.62-4,12.83,12.83,0,0,0-1.2-1.87,10.41,10.41,0,0,0-5-3.1,4.74,4.74,0,0,1-1.43-.62c-.91-.7-.52-.52-1.48-.36a17,17,0,0,1-2,0,19.47,19.47,0,0,0-5.49.68c0-.44.57-.7.89-1a24.78,24.78,0,0,0,1.74-2.06c.39-.44.42-.86.7-1.2a3.88,3.88,0,0,0,.78-1.13,12.57,12.57,0,0,0,1-1.87c.23-.89,2.29-3.77.57-4.79a6.14,6.14,0,0,0-1.46-.47,6.72,6.72,0,0,1-1.33-.57,5.94,5.94,0,0,0-3-.81c-1.2,0-2.6.39-3.44.42,0-.49.68-2.16.81-2.81A2.6,2.6,0,0,0,99.59,5c-.21-.31-.31-.23-.57-.39s-.55-.65-.83-.91-.34-.18-.57-.31a4.82,4.82,0,0,1-.86-1,2.13,2.13,0,0,0-.91-.86.39.39,0,0,0-.54.12h0v.06h0c-.57-.47-.81-1.48-1.56-1.8a4.35,4.35,0,0,1-1,1.69L89.21,6.27c-.78,1.07-1.61,2-2.39,3.07-1.54,2.08-3.2,4.09-4.66,6.22-.73,1-1.74,2.06-2.37,3.1-1,1.61-.81.49-.68,1.87,0,.31,0,.31-.16.49s-.23.31-.23,1v.6a6.85,6.85,0,0,0,.29,1c.16.83-.44,1,0,1.46h0a2,2,0,0,1,0,.7,3.44,3.44,0,0,1-.26,1.2,1.48,1.48,0,0,0,1.09-.34c.65-.36.18.52,1,0,.29-.16.65-.47.89-.44H83c.52,0,.78.16,1.25,0a6.14,6.14,0,0,0,1.74-1c.31-.21.55-.55.91-.55s0,.16.21.42,2.6-2.6,3.36-3.1a18.22,18.22,0,0,0,2.94-3.64l1.35-1.87c.78-1.12.55-1,1.87-1.43a50.41,50.41,0,0,1,5-1.54c0,1.59-3.23,5.21-3.93,6.77a1.61,1.61,0,0,1-.73.86l-1.28,1.8c-.52.65-.94,1-1.46,1.61a7.21,7.21,0,0,1-1.53,1.57,8,8,0,0,0-1.2,1.15,5.21,5.21,0,0,0-.78.75,9.84,9.84,0,0,1-1.25,1.1l-4,4c-.52.44,0,.44-.7.89-2.45,1.41-4.45,2.6-6.87,3.85a1.9,1.9,0,0,1-1.32.26,2.92,2.92,0,0,0,.23,1.28c0,.29,0,0-.23.36.39,0,.29,0,.42.52A4.53,4.53,0,0,0,78.23,42c2,1.61,1.54.26,2.92.42Zm11.51-5.65a15.62,15.62,0,0,1,1.93-1.15l7.81-4.43a31.47,31.47,0,0,1,6.53-2.6A46.39,46.39,0,0,1,106.61,33c-.44.73-.86,1.38-1.25,2.11l-.57,1.09-1.72,3.33c-.86,1.72-.57,1.25-1.74,1.61-.68.21-4.82,1.64-5,1.59s-.65-1.15-.89-1.54a5.78,5.78,0,0,0-.49-.68c-.6-.83-.62-1.07-.91-1.48A10.07,10.07,0,0,1,92.68,36.81Z" transform="translate(-0.09 0.08)"/><path class="cls-1" d="M166.53,11.1c-.55-.36,0-1.56-2.6-3.75-.47-.44-.75-.94-1.51-1s-.47.18-1-.31h0v.23a23.19,23.19,0,0,0-1.85,4.5c-.86,2.76,0,2.94-1.51,3.57a4.48,4.48,0,0,1-1.54.21c0,1.07-.39.68-.83,1.12a11.82,11.82,0,0,0,1,1.28c.29.29.49,0,.81.29s0,.65.86,1.43c.26.26,0,0,.16.39s1.17,1,1.51,1.43a11.22,11.22,0,0,0,2.34,2.24c.42.23.39,0,.7.39a3,3,0,0,0,2.37,1.15c.34-.44.21-.44.89-.6s.36-.49.7-.73a2,2,0,0,1,0,.89,9.35,9.35,0,0,1-1.12.49,4.48,4.48,0,0,0-1.07.65,18.59,18.59,0,0,1-2.37,1l-3.28,1.8c-.34.18-.75.47-1.09.62a2.6,2.6,0,0,0,1.33,2.08,4.71,4.71,0,0,0,2.24,1.12,16.11,16.11,0,0,0,5.19-1.49c0,1.43-.34,1-2.08,1.87a46.23,46.23,0,0,1-7.25,2.52c-.55,0-1.17-.36-1.64-.36.21.81-.47.91-.47,1.56a8.93,8.93,0,0,0,1.17,3.15,1.77,1.77,0,0,0,1.43.83c.21,0,.21-.18.44-.29a26.71,26.71,0,0,0,5.21-2.6,5.21,5.21,0,0,1,2-1,16,16,0,0,1-.31,2.6c0,.42-.49.52-.81.7-1.67.91-3.28,1.8-4.84,2.79A11.19,11.19,0,0,1,157.84,43c-1.09.34-1.69.47-1.12,1.41,1.15,1.82,2.6,2.19,3,3a5.57,5.57,0,0,0,1.2-.18h.52L162,47l1.07-.29c.34,0,1-.55,1,0a13.67,13.67,0,0,1-.34,2.86,40,40,0,0,1-1,5.21c-.18.16,0,0-.26,0l-.39-.16-.75-.29c-1-.36-.89,0-1.3-.78s-.49-.91-.7-1.35c-.68-1.46-1-.6-2.13-2a3.15,3.15,0,0,1-.39-.62,2.6,2.6,0,0,0-.34-.7,4.74,4.74,0,0,0-1.28-.81c-.52-.21-.44,0-.75,0a1.22,1.22,0,0,0-.83.21c-.29.21.16.34.16.89a5.94,5.94,0,0,0-1.23,3.2c-.31,1.2-.55,2.6-.78,3.8s-.36,1.69-.49,2.6a50.53,50.53,0,0,0-1.54,7.58,6.38,6.38,0,0,0,.47,2.6c.18.16,0,0,.21,0l.49.34c.47,0,.29-.47.68-.55s0,.26,0,.57c.55,0,.75-.47,1-.86l.86-1.07a10.59,10.59,0,0,1,2-1.9c1.15-.7,1-.36,1.82-2,.18-.39.42-1,.57-1.38.68-1.87.21-1.41,1.25-1.59.34,0,.36-.18.6-.29a1.46,1.46,0,0,0,1.3.55c.47,0,.36-.81,1-.86a14.42,14.42,0,0,1,.47,3.64c0,.57-.47,0,0,1.54a8.69,8.69,0,0,0,1,2.08c.23.62.36,1,.83,1.25s.57.75,1.12,1,.57,0,.91,0,.86.83,1.28.73,1-.55,1.56-.47,1.41.36,1.59-.29a7.39,7.39,0,0,1,.21-.83c.29-.75.7-.16,1.07-2.06,0-.6-.16-.39,0-.91a7.55,7.55,0,0,0,0-2.86,14.63,14.63,0,0,0-.26-1.82c0-.55-.23-1.28-.26-1.8,0-2.39.23-4.76,0-7.16V49a13,13,0,0,1,.26-1.8,12.29,12.29,0,0,1,.29-1.85,6.22,6.22,0,0,0,0-1.9,7.05,7.05,0,0,1,.16-1.93,14.63,14.63,0,0,1,3.59-2.6l4.14-2.13c.42-.21,1.07-.52,1-1.07s-1.59-.49-1.61-1,.21-.39.44-.62l.52-.6c.39-.42.6-.86.94-1.28a11.77,11.77,0,0,0,1.41-1.93c.44-.83.73-.78,2.06-1.28s1.59-.16,2.6-.81c.26-.18.42-.44.57-.55a7,7,0,0,0,1.69-.52c0-.39-.18-.36,0-.86a1.74,1.74,0,0,0,.21-.81c0-1.41-3.2-1.43-4.27-1.72,0-2.21-.23-1.82-1.17-3.36a3.57,3.57,0,0,0-3-1.54h-2.19a25.43,25.43,0,0,0-5.39,1.56A3.15,3.15,0,0,1,174.81,19c.31-.23.62-1.17.89-1.56s.75-.55,1.51-.91a4.35,4.35,0,0,0,1.48-.91h-.62c0-.29.26-.31.55-.44a1.09,1.09,0,0,1,.75-.18,2.32,2.32,0,0,0,1.2-.62,10.13,10.13,0,0,1,1.17-.7,8.17,8.17,0,0,0,1-1c-.13-.26-.13,0-.21-.34a9.61,9.61,0,0,0,.62-1.09l1.15-.57a2.6,2.6,0,0,0-.55-1.28,5.94,5.94,0,0,0-2.6-1.17,5.21,5.21,0,0,1-1.69,0,6,6,0,0,1,.36-1.85,2.79,2.79,0,0,0-.52-1.46l-.47-.49c-.16-.18-.21-.34-.42-.57a7.45,7.45,0,0,0-3.8-2.13,1.09,1.09,0,0,0-.7.16c-.34.16-1.28-.31-2.45-.23,0,.86.86-.18.86,3.07v4c0,.7-.23.52-1.2.81s-1.93.68-3,1.07a5.6,5.6,0,0,1-1.59.52Zm4.74,22.23a6.51,6.51,0,0,1,2.13-1c-.18.47-.73.68-1.09,1,.16.52.49.31.47,1s.29.62.31,1.17a3.36,3.36,0,0,1-1.54.52,15.62,15.62,0,0,1-.23-2.6ZM167.15,22.1a2.16,2.16,0,0,1,.73-1.43c.52-.21,1.09-.31,1.61-.52l1.51-.62a7.24,7.24,0,0,1,1.53-.63,6.17,6.17,0,0,1-.57,2.19,12.26,12.26,0,0,1-2.6,1.54c-1,.49-1.22.78-1.59,0s-.36-.29-.78-.55Zm3.38,7.34a1.12,1.12,0,0,1-.23-.86c0-.55,1.22-1.09,1.67-1.38a40.61,40.61,0,0,1,8-4A19.55,19.55,0,0,1,178.82,26a22.2,22.2,0,0,1-2.76,1.2l-4.24,1.72a10.41,10.41,0,0,1-1.41.49Z" transform="translate(-0.09 0.08)"/><path class="cls-1" d="M179.28,42.72c0,.7,0,.31-.29.7s.26.65,0,1.22a22.44,22.44,0,0,0,0,4.11c0,.81.21,1.72.21,2.6-.26-.18-.31-.34-.65-.47a2.06,2.06,0,0,1-.75-.42c-.21-.18-1.09-.29-1.8-.57s-.78-.68-1.33-1c-2.6-1.59-1.12,0-1.93.89a7.5,7.5,0,0,0,.16,6.33,6.69,6.69,0,0,0,.91,1.17c.81.86,1,1.85,2,1.67.39,0,.52-.68,1.82-.89s.6.36,2-1.09c.29-.31.16-.49.57-.49s.23,1.17.47,2a24,24,0,0,0,4,8.33c.6.7,1.28,2,1.9,1.67.18,0,0-.16.42-.21h.7a2.6,2.6,0,0,0,.52-1.17c.16-.62,0-.75.34-1.28a21.32,21.32,0,0,1,1.74-2.26,6.9,6.9,0,0,0,.81-.78c.13-.16.26-.21.42-.42s0-.49.57-1,0-2.6,0-3a7,7,0,0,0-.29-1.69,6.3,6.3,0,0,0-.42-1.43,44.44,44.44,0,0,0-2.6-7.11c-.26-.47-.39-.78-.65-1.22a6.92,6.92,0,0,0-5.6-3.91L181,42.71A3.83,3.83,0,0,0,179.28,42.72Z" transform="translate(-0.09 0.08)"/><path class="cls-1" d="M133,49.62c.39.57,0-.55.55.86a3,3,0,0,0,1.12,1.72c.23.23.47.57.68.78s.29,0,1.38,1.46a13.93,13.93,0,0,0,1.64,1.2,4.71,4.71,0,0,0,.78.6c.55.23,1.3.34,2.16.7.29,0,.78.44,1,.49a6.3,6.3,0,0,0,2.6-.16,20,20,0,0,0,2-.83,8.17,8.17,0,0,0,1.72-1,3.18,3.18,0,0,0,1-1c.18-.26.21-.16.39-.36a6.69,6.69,0,0,0,.73-2.11,19.71,19.71,0,0,1,.36-2.6c1.12-3.51,0-2,.65-3.31a4.89,4.89,0,0,0,.36-1.09c.21-.83,2.13-2.6,1.41-4h-.91a.74.74,0,0,1-.7-.26c0,.75,0,.62-.65,1a7.81,7.81,0,0,1-1.07.68,39.88,39.88,0,0,1-4.69,2.28l-4.69,2.08a21.69,21.69,0,0,1-2.6,1l-1.3.44a14.21,14.21,0,0,0-2.6.78A4.58,4.58,0,0,0,133,49.62Z" transform="translate(-0.09 0.08)"/><path class="cls-1" d="M140.36,15.83H138.7a11.61,11.61,0,0,0-2.6.7c-1.09.47-.6.83-.47,1.38s0,.29.31.52a10.08,10.08,0,0,0,.83.75,1.9,1.9,0,0,1,1,.62,6.61,6.61,0,0,0,.73.91c.57.47,1.2.94,1.74,1.46a10.57,10.57,0,0,0,5.17,2.93,11.53,11.53,0,0,0,4.27-.57,7.11,7.11,0,0,0,2.13-2.6c.18-.65-1-1.82-1.28-3.54a2.11,2.11,0,0,0-.55-1,1.48,1.48,0,0,0-.94-.65c-.86-.21-1.77-.34-2.6-.55A40.19,40.19,0,0,0,142,16C141.53,15.93,140.83,15.83,140.36,15.83Z" transform="translate(-0.09 0.08)"/><path class="cls-1" d="M136.36,30.4c.16.18,0,0,.34.26h0a1.51,1.51,0,0,1-.21.34,33.45,33.45,0,0,0,2.83,4.1c.86.78,1,1.35,1.3,1.46a1.33,1.33,0,0,1,.78.6c.26.42.52.18.94.44l.44.26a7.16,7.16,0,0,0,2.6.78h.6l1.55-.54a4.4,4.4,0,0,0,2.08-3.54c0-1.38-.31-1-.44-1.67a2.6,2.6,0,0,0-.65-1.43c-.31-.34,0-.81-1.69-1.07l-.91-.16a30.8,30.8,0,0,0-7.81-.65A2.39,2.39,0,0,0,136.36,30.4Z" transform="translate(-0.09 0.08)"/><path class="cls-1" d="M266.93,11.74c.81,0,6.85-.52,7.81-.73a21.71,21.71,0,0,1,2.29-.62,93,93,0,0,1,.49,14.14c-1-.34-1.61-1.82-2.76-1.38-2,.73-4.61,1.33-6.3,2.13a10.86,10.86,0,0,1-3.07,1.28c0-2.94.13-6.4-2.6-8-2-1.2-2.39-.21-2.6-.18s-1.22-.68-1.82-.21c0,.62,0,.18.39.57a11,11,0,0,1-.36,3.2,54,54,0,0,0-1.85,11,13,13,0,0,1-.21,1.59c-.16,1.87-.62,5-.68,6.64,0,2.6-.52,4.19-.7,6.66a34.07,34.07,0,0,1-1.09,6.25,2.45,2.45,0,0,0,.23,1.48,16.37,16.37,0,0,1,3.33,4c.49.86,1.74.73,2.29,1.35a6.45,6.45,0,0,0,.39.55,2.26,2.26,0,0,0,.55.39c1,.65.81,1.09,2.47,1.28.44,1,.29.62,1.56.78a6.53,6.53,0,0,0,2-.21,4.56,4.56,0,0,0,3.51-1,15.62,15.62,0,0,0,3.54-3.49,2.6,2.6,0,0,0,.91-1.48c.34,0,1.09,1.12,1.35,1.51.6.83,0,.44,1.12,1.77a13.64,13.64,0,0,1,1.15,1.77c.39.7.36.29.81.68s.31,0,1,.52.65,0,1.09,0,1.56,1.9,2.89.6c.62-.62.68-1.28,1.09-1.8s.49-.34.75-.73,0-.42.73-.78.49-.42,1-.47.55-.13.91-.52c1.64-1.8.86-5.21.49-7.5-.26-1.8-.39-3.44-.65-5.21-.16-1,0-6.92,0-8.72a99.39,99.39,0,0,0-.47-10.1L287.34,24V21.57l-.75-7.29A26,26,0,0,0,286,9.49a6.17,6.17,0,0,0-6.2-4.5,4.84,4.84,0,0,0-1.93.49c-.6.23-1.35.18-2,.42a16.24,16.24,0,0,0-4,2.21l-5,3.57h0Zm-1.15,24.11a13.54,13.54,0,0,0,2.32-.21A17.68,17.68,0,0,0,273,33.27c3.28-2.6,2-2.11,3.44-3.88.29-.36.91-1,1.46-.89v7.44a1.15,1.15,0,0,1-.23.83,28.82,28.82,0,0,0-9,2.32,5.21,5.21,0,0,1-2.94,1l-.16-.52a2.76,2.76,0,0,0-.06-.47v-1a3.07,3.07,0,0,1,.21-2.16Zm.6,15.2c0-3-.36-1.28,2.24-3.15a14.55,14.55,0,0,1,1.59-1c1.46-1.07,3.12-2.24,4.45-3.41.49-.44.86-.83,1.38-1.25a5.75,5.75,0,0,1,1.54-1.07c0,3-.18,4.74-.29,7.5,0,.86.21,1.28-.47,1.67-1.33.75-2.06,1.25-3,.62l-3-1.35c.26.78,1.25,2.24,1.3,2.79a14.08,14.08,0,0,1-2.6,1.07,5.36,5.36,0,0,1-2.86.62,10.41,10.41,0,0,1-.34-3Z" transform="translate(-0.09 0.08)"/><path class="cls-1" d="M240.85,2.34h.49a12.63,12.63,0,0,1-.29,3.9l-.26,2.42a64.06,64.06,0,0,0-.49,6.59,60.37,60.37,0,0,1-9.5,5.44c-3.88,1.9-3.07.89-3.75,1a4.19,4.19,0,0,0-.94.81c.29.47.39,0,.81.68s2.24,1.87,2.37,2.21a2.6,2.6,0,0,0,1.33,1.67,5.21,5.21,0,0,0,2.13,1h3.64a36.44,36.44,0,0,1-3.72,5.21A27.31,27.31,0,0,0,230.93,36a17.55,17.55,0,0,0-1.41,3.1c-1.07.29-1.67,0-2.19.78a5,5,0,0,1-.65.83,35.79,35.79,0,0,1-8.51,5.54,62.84,62.84,0,0,0-10.41,8,43.94,43.94,0,0,1-6.51,5c-.31.16-.29,0-.52.26s.52.55.73.91a12.86,12.86,0,0,0,3.18,3.65,6.38,6.38,0,0,1,.81.89A21.32,21.32,0,0,0,210,67.1a4.58,4.58,0,0,1,1.48,0l1.64.18a3.54,3.54,0,0,0,2.76-.34,18,18,0,0,0,5.65-4.66,23.06,23.06,0,0,0,2.24-4.58,25,25,0,0,1,.71-2.6c0-.21.18-.47.21-.62a6.46,6.46,0,0,1,.18-1.54c.18-.44.16-.21,0-.73s.34-.7.47-1.09c.31-.86.36-2.06.65-2.6,0-.21.26-.36.31-.52a1.22,1.22,0,0,1,.26-.68v.16a6.51,6.51,0,0,1,0,1.12c0,.52.29.65.49.89h.78c0,.7-.26.65.23,1.2.86,1,1.07.57,2,0s1.74-.31,2.47-.83a2.6,2.6,0,0,0,.6-1c.42-.73.68-.55,1.28-2l1.8-4.69c.31-.83,1.17-4.24,2-4.45V51c0,.6-.18.55-.18,1.22a10.21,10.21,0,0,1,0,1.51c-1.2.57-.81,1.09-.7,2.79a22.73,22.73,0,0,1,0,3.67c-.68.42-.62.16-.6,1,0,2,1.12,2.76,2.39,4.69.44.68.68.36,1,.89.62,1.12-.42,2.86,2.6,2.94.75,0,1.07-.21,1.64.21s.62.34,1.33,0c1.17-.52,1.54.62,2.39-1.09.18-.36,0-.29.36-.55a1.51,1.51,0,0,0,.39-.52,3,3,0,0,0,.55-1.33,13.43,13.43,0,0,1,.23-1.64,5.44,5.44,0,0,0,.52-3.07,8.28,8.28,0,0,0-.91-2.73c-.31-.57-1.74-4.63-1.93-5.39s-1.25-4.95-1.35-5.91V46c-.23-1.77-.18-3.49-.26-5.21a20.28,20.28,0,0,1,2.6,1.8c1.09.75.52.29,1.77.47a4.24,4.24,0,0,1,1.51.75c.44,0,.47-.26.81-.52s.23,0,.89,0,.36-.36.44-.91a26.79,26.79,0,0,1,1.9-4c.52-1.15-1.72-3.44-2.89-4.19a15,15,0,0,0-1.85-1.07c-1-.39-3.44-1-4-1.82a10.15,10.15,0,0,1,.26-1.85,30,30,0,0,0,.42-3.75c.34-3.59-.29-1.2,2.6-4.06a32,32,0,0,0,3.1-3.46,15.85,15.85,0,0,0,.65-1.59l.78-1.46a3.9,3.9,0,0,1,.31-.81c.29-.44.26-.23.55-.55l-.26-.83c.34-.36.31,0,.55-.62a2.37,2.37,0,0,1,.42-.78c.31-.39,1.09-.91,1.09-1.33-.39-.23-1,.29-1.93-.39-.42-.31,0-.26-1.15-.18-2.16,0-.7-.21-1.82.36a8.67,8.67,0,0,1-1.87.62,13,13,0,0,1-3.31,0c-.89-1.77-.55-4.84-1.33-6.92a3.7,3.7,0,0,0-1.77-2.32,1,1,0,0,0-.83,0C242.53,2,240.9,1.3,240.85,2.34Z" transform="translate(-0.09 0.08)"/><path class="cls-1" d="M217,18.38c1.17.18.23-.26,1.35.44,1.64,1,.78.62,2.92.68,1.3,0,.68.29,1.59,0,.21-1.51-.16-.57.62-1.59,1.2,0,1.28.18,2.6-1.35.36-.42.68-.55.49-1.41a7.6,7.6,0,0,0-1.93-4.06L223,9.74c-.68-.49-1.3-.26-2.21-.78A21.14,21.14,0,0,0,216,7.74c-2.21-.36-4.76,0-5.67-.21s-.89-.47-1.64-.55c0,.81.78.73,1.07,1.46,1.61,4.5,2,3,2.6,4.71.31.78.23.68,1,1.38l1.28,1.15L216,16.8c1,.86.68.34.73,1A.78.78,0,0,0,217,18.38Z" transform="translate(-0.09 0.08)"/><path class="cls-1" d="M204.53,29.7c.13.83,2.6,3,3.36,3.75a17.39,17.39,0,0,0,7.81,4.48c1.2.31,1.25-.39,3.07.49.62.31.78.18,1.09-.31s.68-.49,1.15-.62.55-.36.83-1a9.84,9.84,0,0,0,.65-2c0-.65-.18-.36-.23-.75a3.12,3.12,0,0,1,0-.7v-.36c0-2-3.93-3.18-5.6-3.59a17.41,17.41,0,0,0-3.15-.36c-3.93-.21-4.45-.83-7.58.6C205.16,29.7,205.16,29.83,204.53,29.7Z" transform="translate(-0.09 0.08)"/><path class="cls-2" d="M387,97v4.51c-.29-.07-.79-.72-1-.94-.33-.45-.23-1-.37-1.49-.23-.85-.86-1.16-.89-1.89,0-.2,0-.7-.22-.72-.16.41,0,2.07-.41,2.62a6.54,6.54,0,0,1-1.92-1.36c0-.12.15-1.59.16-1.83l.08-2a4.25,4.25,0,0,0-1.06-3.22c-.16-.14-.7-.76-.82-.82s-.25,0-.41-.15a3,3,0,0,0-1.51-.74,3.45,3.45,0,0,1,.31,1.15c.1,1.08.11,2,.11,3.13,0,.7-.15,1.44-.2,2.14s-.7,6.2-.79,6.37h0l-.08-.2c-.27-.61-.37-.76-.61-1.43s-1-.82-1.28-1.16a7,7,0,0,1-.4-.83c-.08-.18,0-.15-.27-.12.12.35.07.1.07.42s.14,0,0,.14-1.36-.22-1.59-.34a15.78,15.78,0,0,0-.7-4.23c-.16-.46-.25-.79-.44-1.24a7.36,7.36,0,0,0-1.39-1.92,11.37,11.37,0,0,1-1-.59,7.69,7.69,0,0,0-1.21-.49c0,.49.2-.1.16,1.36V95.5c-.08,1.8-.3,3.69-.52,5.45a5.78,5.78,0,0,0-.67-1.14,3.63,3.63,0,0,0-1.64-1.09c-.31-.14-.52,0-.75-.16l-.26-.19-.9-.5c0,.44.23.1.12,1.19a19.08,19.08,0,0,0,0,2.58c0,.18.14.34.16.5.18.94-.42.59.63,2.1.15.2.44.18.61.34a.55.55,0,0,0,.27.18c.35.15.33.38,1.08-.41.2,0,.15.08.42.08s.23-.57.34-.65h0a16.36,16.36,0,0,1-.67,3.24,16.66,16.66,0,0,1-2.13,4l-1.24,1.8c-.23.34-.46.22-.59.46s.11.53.16.76a4.09,4.09,0,0,1,0,1c0,.57.78.78,1.36.78a2.18,2.18,0,0,0,.6-.18,3.49,3.49,0,0,1,.71-.08c.18-.3.14-.12.41-.33a21.06,21.06,0,0,0,2.55-2.88l1.88-2.73c.31-.41.6-1,.91-1.46a8,8,0,0,0,1.21-2.72c.11-.44.14-.89.23-1.36a29,29,0,0,0,.46-4.09,8.19,8.19,0,0,1,.08-1.5c.08-.14.19.15.22.26a3.64,3.64,0,0,1,0,1.58,6.69,6.69,0,0,1-.14,1,3.31,3.31,0,0,0,1.32,3.16,2.59,2.59,0,0,0,.86.3c.78-1,.37-.7.91-.56.12-.15.38-.71.61-.49a10,10,0,0,1-.38,2.86,7.92,7.92,0,0,1-.42,1.24c-.37.9.2.63.14,1.27s-.5.71-.44,1.27a10.9,10.9,0,0,0,.44,1.27c.38,1,.37.52.9,1.19.14.16,0,.12.23.19s.31.11.41.42c.48,0,.35,0,.63-.22a2.34,2.34,0,0,1,.57-.29c.19-.11.38-.26.53-.34s.56.15.75-.07,0-.25,0-.49l.23-1.87a18.3,18.3,0,0,0,.22-2.62l.12-3.35c0-.3-.11-.3,0-.61a8.45,8.45,0,0,0,.08-1.51,2.15,2.15,0,0,0,0-.3v-1.2a1.85,1.85,0,0,1,0-.56v.08c.14.45-.23,2.84,0,3.16a4.58,4.58,0,0,1,1,1.14c.18.33.67.63,1.06,1.13a1.65,1.65,0,0,1,.7.12c.7.29,1.5-.22,2.09-.26a42.66,42.66,0,0,1-.42,6.37l-.1,1.34v.76c0,.25-.15.37-.23.57a1.28,1.28,0,0,0,0,.31,2.12,2.12,0,0,1-.11.31c-.16.6.41.2.12,1.25a.67.67,0,0,1-.33.49c0,.41.31.56.49.9a2.49,2.49,0,0,0,.5.86c.11.12.15.29.29.4s.11,0,.19.12a.6.6,0,0,0,.18.19c.1.08.3.16.42.26s.15.26.26.41.18-.11.31-.2a1.76,1.76,0,0,0,.31.12c.55.14.41.3,1.36.18a1.58,1.58,0,0,1,.45,0,.75.75,0,0,0,.41,0,3.79,3.79,0,0,0,1.14-.79c.41-.35.38-.1.74,0,.71.12.61-1.68.61-2.15s-.3-1.47-.38-2a50.62,50.62,0,0,1-.46-7.7c0-1.12-.12-1.87-.14-3a13.15,13.15,0,0,0,0-1.54v-.67c-.14-1.21-.08-2.82-.16-3.84a4.89,4.89,0,0,1,0-1.47V96.2a32.25,32.25,0,0,0,0-3.71V91.1a12.51,12.51,0,0,0-1-4.16,10.07,10.07,0,0,0-.63-1,3.26,3.26,0,0,0-.91-.82,2.22,2.22,0,0,0-.59-.27h-.35c-.16,0-.18-.08-.31-.14s-2.15-.8-1.65,0S387,95.82,387,97Z" transform="translate(-0.09 0.08)"/><path class="cls-2" d="M349,112.9c-.16.5.57,1.14.86,1.36-.11.33-.6.79-.14,1.46.29.42.59.48,1,.91a2.07,2.07,0,0,0,.56.4c.23.11.52,0,.8.2a3.48,3.48,0,0,0,.67.33,4.58,4.58,0,0,0,2.6.19,3.52,3.52,0,0,0,1.36-.53,30.42,30.42,0,0,0,3.11-1.91l.56-.45a6.73,6.73,0,0,0,.65-1.36c.14-.4.18-.38,0-.75a3,3,0,0,1,.2-1.72c.07-.27.1-.55.18-.82a6.12,6.12,0,0,1,.49-1.46c.15-.22,0-.1.11-.35s.1-.29.14-.37c.12-.31.26-.37.37-.63s.16-.45.27-.68l.16-.33a1.88,1.88,0,0,1,.23-.27,8.41,8.41,0,0,0,.26-1.74c-1.36-.38-.86.14-1.84.79a17.09,17.09,0,0,1-1.85,1.1,17.8,17.8,0,0,0-3.65,2.33c-.59.44-1.1.83-1.64,1.27a18.56,18.56,0,0,1-4.31,3C349.48,113.27,349.66,112.82,349,112.9Z" transform="translate(-0.09 0.08)"/><path class="cls-2" d="M355.69,89c-.27.26.45,1,.57,1.36s-.15.46-.12.82a2.32,2.32,0,0,0,.23.79,9.87,9.87,0,0,0,3.23,2.93,2.63,2.63,0,0,0,1.46.63,2.78,2.78,0,0,0,1,0,2.55,2.55,0,0,0,1,0c.91-.16.89.23,1.69-.31s.59-.57.56-1.51c0-.53.25-1.06-.52-1.5a8.7,8.7,0,0,1-1.73-1.39,4.09,4.09,0,0,0-1.24-.8l-2.85-.7a1.17,1.17,0,0,1-.49,0c-.3,0-2.18-.41-2.47-.4S355.77,88.89,355.69,89Z" transform="translate(-0.09 0.08)"/><path class="cls-2" d="M354.61,99.16c.37.38,1,.1.7,1-.08.27-.5.42.18,1l.57.44a4.78,4.78,0,0,0,1.1.89c.45.23.87.4,1.36.65a3.45,3.45,0,0,0,1.66.33,17.34,17.34,0,0,0,1.69-.63,2.73,2.73,0,0,0,.63-.15,1.06,1.06,0,0,0,.65-.9,3.3,3.3,0,0,1,.1-.67,2.23,2.23,0,0,0-.08-.68c-1.36-.83-1.5-1.66-2.73-1.92a.61.61,0,0,0-.38,0h-.78l-.41-.1A6.82,6.82,0,0,0,354.61,99.16Z" transform="translate(-0.09 0.08)"/><path class="cls-2" d="M407.36,107.1l-.07-.08-.52-1.28c-.08-.15-.12-.33-.19-.45-.41-.74-3-1.36-3.83-1.36a6.56,6.56,0,0,1-1.17-.1c-.38,0-.71-.3-1-.34a12,12,0,0,0,1.1,3.91,6.64,6.64,0,0,0,2.07,2.32c.16.11.27.14.41.25a25.19,25.19,0,0,1-2.73,1.84l-1.36.94a2.14,2.14,0,0,1-1.76.49c0,.38.19.46.37.68s.5.89.75,1.24a5,5,0,0,0,1.57,1.36,5.06,5.06,0,0,0,1.36.64,10.81,10.81,0,0,0,1.87,0,17.07,17.07,0,0,0,5.37-2.64L412,113c.27-.26.14-.22.53-.46a5.9,5.9,0,0,0,1.19-.85,1,1,0,0,1,.27-.2c.6-.31.82-.9,1.36-1.17a12.89,12.89,0,0,0,1.53-1.43c.25-.3.19-.3.53-.49-.1.63-2.29,3.93-1.43,6a12,12,0,0,0,.59,1.36c.3.55.5.46.68.79a4.09,4.09,0,0,0,1.25,1.27c.22.18.3.33.59.4a6.32,6.32,0,0,0,1,0c.18-.08,0,0,.3-.2a.83.83,0,0,0,.5-.53c.08-.2,0-.27.27-.29.14.27,0,.76.08,1.1a2.64,2.64,0,0,0,.83,1.61,2.09,2.09,0,0,0,2,0c.29-.08.42-.27.83-.38.68-.19,1.25-.38,1.88-.57s1.27-.4,1.8-.61,1.2-.42,1.74-.7a10,10,0,0,0,1.61-.86c.94-.74.49-1,1.27-1.19,0-.6-.27-.79-.68-1.1a2,2,0,0,0-1.28-.5c-.48-.07-1.1-.15-1.61-.18s-1.12,0-1.76,0c0-.11.1-.12.22-.19s.46-.35.71-.52a10.54,10.54,0,0,0,.9-.75c.55-.45,1.29-1,1.83-1.47s.68-.35,1-.64a2.13,2.13,0,0,1,.49-.3,1.91,1.91,0,0,0,.48-.37l.86-.79a4.44,4.44,0,0,0,.79-.86h.12a.59.59,0,0,0,.37-.18c1.36-1.23.68-1.25.8-1.59a.8.8,0,0,0,.23-1.08c-.16-.29-.18-.12-.23-.52a.86.86,0,0,0-.23-.52,2,2,0,0,0-1-.45,6,6,0,0,0-1.27-.27c-2-.19-1.49-.78-4-.46a6.22,6.22,0,0,0-1.44.2,11.49,11.49,0,0,1-1.29.22,12.51,12.51,0,0,0-3.54,1l-1,.56a6,6,0,0,0-.85.71,9.68,9.68,0,0,0-1.48,1.51c.55-.16.86-.83,1.85-.71a7.55,7.55,0,0,0,2.36.07h.57a11.74,11.74,0,0,1,1.77-.08h2.61c0,.83-.63,1.12-1,2.09a3.15,3.15,0,0,1-.38.65,7.31,7.31,0,0,1-.87,1.16l-1,1.06-1.47,1.59a1.51,1.51,0,0,1-.53.45h0c-.38.2-.68.76-1.1,1a5.92,5.92,0,0,1-1.61.48,9.39,9.39,0,0,0-.08-1.53c-.08-.5-.12-1-.19-1.43a3.47,3.47,0,0,0-.14-.67,7.85,7.85,0,0,0-2.34-3.35c-.7-.49-.53-.57-.5-1,0,0-.18-1.36-.2-1.46-.25-.11-.59-.07-.83-.16s-.18-.44-.44-.59c-.37.4,0,.61-1.24,1.21a4.44,4.44,0,0,1-2,.48c0-.19.42-.65.56-.9s.31-.65.48-1a2.17,2.17,0,0,0,.38-1.08v-.71c0-.18-.12-.2-.19-.59a3.28,3.28,0,0,0-1.24-1.7,8.61,8.61,0,0,0-1.07-.28,4.66,4.66,0,0,1-.55-.22,4.93,4.93,0,0,0-.46-.27,2.28,2.28,0,0,0-.07.55v.25a.38.38,0,0,1-.1.3c-.23.53-1.68,2.94-2.11,3.73-.18.33-.31.63-.5,1l-.52.94A2.41,2.41,0,0,1,407.36,107.1Z" transform="translate(-0.09 0.08)"/><path class="cls-2" d="M410.41,93.49a18.86,18.86,0,0,0-3,.75,8.86,8.86,0,0,0-1.36.49,52.37,52.37,0,0,1-5.83,2.56,1.28,1.28,0,0,1-.46,0c-.25,0-.12-.08-.37-.11,0,.48.3.67.5,1.36a5.15,5.15,0,0,0,1.72,2.14,4.29,4.29,0,0,0,4.53.55,11.42,11.42,0,0,0,2.73-1.13A9.62,9.62,0,0,0,410.68,99a4.09,4.09,0,0,0,1.12-.82,12.54,12.54,0,0,1,1.62-1.36,3.9,3.9,0,0,0,1-1c.41-.9.14.08.87-1,.27-.41.6-.65.19-1.36s-.8-.27-1.36-.19c-.18-.15,0-.16-.33-.16-1,0-2.73.27-3.24.25.93-.56.9-.18,1.36-.3a3.93,3.93,0,0,0,.56-.29,3.34,3.34,0,0,1,.79,0,3.11,3.11,0,0,0-.1-.93c-.07-.31,0-.41.31-.55,0-.83-.52-.49-.53-1.36,0-.42-.18-.35-.34-.59s0-.19-.15-.33a1.1,1.1,0,0,0-.25-.23c-1.17-1-4.4-1.36-5.94-1.59-.63-.08-2.73-.41-3.2-.57s-.45,0-.15,1A7.33,7.33,0,0,0,405,91.2a4.55,4.55,0,0,0,2.26,1.5,11.6,11.6,0,0,0,1.47.41,3.13,3.13,0,0,0,1.27.16h.22Z" transform="translate(-0.09 0.08)"/><path class="cls-2" d="M420.84,90.21c0,2.9,0,6,.16,8.82a6.16,6.16,0,0,0,.25,1.53,4.17,4.17,0,0,0,.42,1.43,8.67,8.67,0,0,0,1.54,2.11l.14-.44c.53,0,.44.87,1.19-.2a2.11,2.11,0,0,0,.31-.74c.18-.57.34-1,.52-1.61A12,12,0,0,1,426.53,98a14.43,14.43,0,0,0,1.7.2c.56,0,.67-.35,1.55.11a.82.82,0,0,0,.38.07c.52,0,.27.3.71.08a1.79,1.79,0,0,1,.38-.14,3.79,3.79,0,0,0,1.36-.56c.19-.35,0-.35.41-.55,0-.45-.18-.34,0-.67s.23-.3.3-.55-.46-.56-.42-.78.1,0,0-.22c-.14-.5-1-.79-1.36-.9-1.21-.34-1.19.34-3.57-.57-.34-.14-.31-.07-.33-.5a19.26,19.26,0,0,0-1.16-5.15,6.3,6.3,0,0,0-2.19-2.51,5.45,5.45,0,0,0-1.09-.52,4.09,4.09,0,0,0-1.13-.38c-.34,0-.3-.11-.5-.26s-.29.12-.18.33a11.8,11.8,0,0,1-.33,2.73L420.84,89v.33C420.83,89.7,420.84,90,420.84,90.21Z" transform="translate(-0.09 0.08)"/><path class="cls-2" d="M328.41,92c0-.82.25-1.19.12-1.49,0-.08,0,0-.08-.18-.18-.63,0,0-.15-.41v-.2a3.84,3.84,0,0,1-.44-.87c0-.14,0-.18-.08-.23h-.1c-.29-.23,0-.29-.5-.79-.08-.08-.3-.33-.38-.14s.08.4-.38.29c-.07-.16,0-.27-.22-.33s-.57.68-.7.82l-.11.1h0l-.19.25c-.29.37-.23.14-.56.75l-1.36,2.52h0a5.26,5.26,0,0,0-.27.48l-1.09,1.89a3.35,3.35,0,0,0-.3.49l-.38.61-.19.34-.3.71a5.7,5.7,0,0,0-.49,1.08,7.3,7.3,0,0,0-.41,1.13v.55l.3.26h0c.35.37,1.19,0,1.59-.19a8.18,8.18,0,0,0,.85-.33l.6-.19c.29-.07,0,0,.25-.15.5-.34,1-.68,1.51-1.06l-.14-.07c.23-.19.22-.31.38-.44s.14-.08.23-.16l.1-.08.52-.48.2-.19.74-.44a.41.41,0,0,0,.3-.1c.14-.1.08-.1.31-.08h0l.26-.16.3-.1c.37-.15.18,0,.61-.22l.63-.19c.22,0,.64-.46.67.11a1.59,1.59,0,0,1-.26,1.2l-.29.29-.3.31-.15.15c-.45.46-.15.14-.45.38s-.16.2-.38.23l-1.07.85c-.22.16-.14.12-.33.37h0l-.19.19-.15.15a4.65,4.65,0,0,1-.72.71h-.07l-1,.9a10.9,10.9,0,0,0-1.17,1.05c0,.16,0,.16-.2.29l-.22.18c-.23.16-.94,0-1.43,0-.86,0-.55.6-.46.83a2.73,2.73,0,0,1,0,1.27c-.1.23-.1.07-.14.55a1.5,1.5,0,0,0,.18,1.09h0c.11.15.56.27.7.75.27.15.2.29.67.16a13.3,13.3,0,0,0,1.47-.45c.16,0,.12-.1.31-.16l.19-.07c.18-.07,0,0,.2,0-.08.37-.41.61-.63.91a19.6,19.6,0,0,1-1.36,1.7l-.6.71-.1.16-.56.76c-.25.25-.29.41-.56.71l-.12.14a4.81,4.81,0,0,1-.76.93l-.65.74-.12.14-.49.52c-.27.26-1.16.33-.94,1.12a4.88,4.88,0,0,0,.38.67,1.27,1.27,0,0,1,.63.2l.25.15c.29.23.07.34.76.23a10.22,10.22,0,0,0,2-.89l.23,0,.11-.07c.19-.12.23,0,.4-.22s.52-.41.75-.65a5.45,5.45,0,0,0,.85-1.13l.72-1a.89.89,0,0,1,.12-.18l.29-.38a1.08,1.08,0,0,0,.11-.19v-.08l.44-.71c.12-.27.11,0,.42-.55l.23-.37.14-.22.7-1.2c.07-.15,0,0,.15-.18v-.06c.2-.23.37-.7.57-.87a2.73,2.73,0,0,0,.4-.52,3.42,3.42,0,0,1,.35-.53c.15-.15.23-.34.46-.34h0v1.66a10.9,10.9,0,0,1-.26,2.41,2.52,2.52,0,0,0,0,.38,2,2,0,0,1-.41,1c-.18.16-.35.22-.41.5a12.81,12.81,0,0,0,0,1.77,4.68,4.68,0,0,0-.15,2.39c.1.59.35.7.33,1.46a3.05,3.05,0,0,0,0,.44c0,.27.12.15.12.34h0l.19.27c.2.2,0,0,.38.35l.19.2v.09l1.36,1a1.36,1.36,0,0,0,.9.11,2.11,2.11,0,0,0,1.74-1.28c.07-.29.2-.49,0-.82a.38.38,0,0,1,0-.38,4,4,0,0,0,.11-1.36,2.08,2.08,0,0,0-.11-.41,3.42,3.42,0,0,1,0-.5c-.07-1.17-.25-.45,0-1.8,0-.3,0-1.65.23-1.83s0,0,.1,0h.08l.14.18c.18.2,1.21.94,1.5,1.16a4.17,4.17,0,0,1,.56.37l.12.1a5.18,5.18,0,0,1,.59.34h0c.29.25.3-.14,1.23.3l.14.08.49.2c.18,0,.08-.14.3-.14s.1.1.31.08H340c.14,0,.46.27.57.27a6.54,6.54,0,0,0,1.14-.57,3,3,0,0,0,.85-.9,1.36,1.36,0,0,0,0-1.09c-.08-.22,0-.08-.19-.2a1.58,1.58,0,0,1,.07-.8h.44c-.08-.22,0,0-.11-.16a.52.52,0,0,1-.11-.15h-.3c-.1-.18,0,0-.11-.12-.38-.27-.1-.16-.49-.38-.11,0-.2-.16-.33-.25-.34-.25-.45-.34,0-.59s.3-.22.08-1c0-.2,0,0-.07-.15s0-.15,0-.37-.45-.5-.67-.59l-.7-.42c-.18-.14-.16,0-.31-.2a.52.52,0,0,0-.26-.19l-1.23-.86a2,2,0,0,0-1.08-.6.93.93,0,0,1-.5-.1c-.29-.1-.3,0-.57-.16a4.2,4.2,0,0,0-1.17-.4,3.26,3.26,0,0,1-1.36-.38s.12-1.55.18-1.69c.31-.79,0-.2.57-.65h0c.22-.18.86-.52,1-.63s0,0,.11-.11h0l.23-.16h0l.64-.37h0l.14-.08,1.27-.75h0c.31-.23.2-.08.41-.2l.71-.35c.35-.15.11-.14.55-.37l.35-.3h0l.12-.15.18-.14.22-.14.41-.25.18-.12c.48-.3.26-.25.31-.83,0-.25.08-.23.1-.44s-.07-.16-.12-.41a1.32,1.32,0,0,1,0-.46c0-.2-.34-.1-.6-.22l-.45-.22H340c-.18-.08,0,0-.14-.08h-.11c-.16-.1-.59-.38-.64-.59s-.38-.22-.53-.34-.3-.15-.46-.29l-.44-.49c-.27-.34-.16-.15-.4-.31l-.1-.08c0,.89,0,.44.14.79v.23c0,.1,0-.08.15.41s.1,0,.15.37a6,6,0,0,1,.15,1c0,.33-.64.41-.71.4h0c-.19.19-.52.22-1,.45l-.63.26a6.92,6.92,0,0,1-1.7.68,6.31,6.31,0,0,1,0-.89c0-.53-.14-1.06.25-1.53a1.08,1.08,0,0,1,.56-.31c0-.16,0-.1.2-.23l.63-.59c.48-.29.79,0,1-.61.08-.23.07-.1.15-.27a1.62,1.62,0,0,0,.1-1.36c-.2-.37,0-.9-.11-1.08l-.61-.38c-.63-.2-1,.34-1.7,0-.25-.11-.63,0-.85-.12a6.32,6.32,0,0,1-.11-1.36c0-.25-.1-.29-.12-.56a2.52,2.52,0,0,0-.48-1.64l-.64-.8c-.14-.11-.11,0-.23-.19s-.1-.19-.27-.22a.86.86,0,0,0-.63.12c-.15,0-.08,0-.19.07a42.13,42.13,0,0,0-.26,4.59c-.1.71.15,1.19-.27,1.53-.1.07-.1,0-.19.1h0l-1,.55-.41.22c-.27.08-.2,0-.25-.3Zm.34,6.82c0-.16,0-.07.15-.2l.7-.52c.14-.11.1-.12.34-.08a2.51,2.51,0,0,1,0,1,1.36,1.36,0,0,1-.7.4l-1.77.94c-.2,0-.14.1-.35.16-.52.18-.52.31-.78.29,0-.26,1.36-1.21,1.5-1.27a1.87,1.87,0,0,0,.34-.22Z" transform="translate(-0.09 0.08)"/><path class="cls-2" d="M309.08,99.72c.08,0,0,0,.12.08a1.54,1.54,0,0,0,.76.5c.33.08,1.16-.07,1.36.1s.14,0-.08.23l-.67.64-.86.89-.23.2-1,1.24c-.27.37-.19.35-.46.48,0,.12-.26.38-.4.53l-.44.61a9.68,9.68,0,0,0-.65.88l-.2.33a2.13,2.13,0,0,1-.22.26l-.75,1.22c0,.14,0,0-.11.15a6.51,6.51,0,0,1-.4.57h0c-.1.11,0,0-.08.14l-.85,1.16c-.31.34-.2.2-.33.68-.25.94-.31.72.44,1.27.35.26.33.18.72.07.72-.2.86-.75,1.23-.83l.46-.45h0l1.73-1.8.2-.23,2.54-2.85c.18-.22.11,0,.64-.63l.18-.22.1-.12.11-.11c.68-.76.53-.15.45.86a1.15,1.15,0,0,1-.08.53,1.55,1.55,0,0,0,0,.61c0,.67-.14.3-.16,1.08l-.22,1.71a3.38,3.38,0,0,0-.11.55v.57c0,.19-.1.3-.12.53a.6.6,0,0,1-.16.45c-.16.22,0,.3-.12.53s-.07,0-.23.42,0,0-.1.22,0,.18,0,.27h0l.61,2.22c.16.42.18.57.38,1a.6.6,0,0,0,.31.57l.35.2c.61.59.35.41.94.7a3.41,3.41,0,0,0,1,.42c.55.12.19,0,.67-.2s.48-.33.75-.64l.15-.19c.1-.12.07-.12.23-.16a1.49,1.49,0,0,1,.44-.35,8.32,8.32,0,0,0,0-.85v-.9c0-.3,0,0-.11-.31l-.15-1.25a6,6,0,0,1-.08-1.28c0-.22,0-.18-.11-.37s0-.56-.11-.82a1.72,1.72,0,0,1-.11-.83h0c.42-.33.48-.08.89.08h.22c.18,0,0-.1.1-.2L318,109c.41-.59.12-.64.25-1.2a3.2,3.2,0,0,0,0-1.72c-.07-.16,0-.29-.15-.46s-.12-.52-.34-.63a5,5,0,0,1-1.84-1.8,3.24,3.24,0,0,1,0-1.49c0-.27-.16-.15,0-.86l.18-1.46c0-.22.1,0,.12-.55s0,0,.18-.46.15-.22.42-.55.41-.3.76-.56a7.74,7.74,0,0,0,.67-.65c.25-.2.19-.12.31-.34s.15-.31.25-.37.1-.16.25-.29a4.35,4.35,0,0,0,1-1.2.4.4,0,0,1,.11-.33c.11-.11.18-.19,0-.46s0-.15-.27-.3,0,0-.19-.19l-.12-.1h-.48c-.38-.14-.19,0-.42-.18s0,0-.22-.1c-.52-.2-.65-.5-.85-.44h0l-.31.4a.64.64,0,0,1-.57.08,20.33,20.33,0,0,1-.1-2.18l.11-1.36v-.78c0-.5.16-.82.14-1.36s.19-.26.16-1.14c-.33-.25-.12-.45-.38-.74l-.3-.26c-.2-.11-.2,0-.33-.25-.29,0,0,0-.48-.15a6,6,0,0,0-1.58-.38.53.53,0,0,0-.12.52A.34.34,0,0,0,314,85a2.88,2.88,0,0,1,.19,1.51v2a1.15,1.15,0,0,1,0,.31A21.21,21.21,0,0,0,314,91c0,.3,0,0-.08.25s0,1-.15,1.55c0,.19,0,1-.2,1.14s0,0-.18.08c-.38.2-.55.16-1,.37l-2.21.74a5.53,5.53,0,0,1-.76.29l-1.08.5c-.44.25-.46.07-.79,0a.82.82,0,0,0,0,1.06c.29.44.26,1.21.61,1.61s.07,0,.29.46S309,99.49,309.08,99.72Z" transform="translate(-0.09 0.08)"/></svg>